<svg xml:space="preserve" viewBox="549.75936 125.257536 854.4 768.9599999999999" width="854.4" y="0px" x="0px" xmlns:xlink="http://www.w3.org/1999/xlink" xmlns="http://www.w3.org/2000/svg" id="Layer_1" version="1.1" style="max-height: 500px" height="768.9599999999999">
<path d="M1078.000000,1081.000000 &#10;&#9;C718.666748,1081.000000 359.833466,1081.000000 1.000144,1081.000000 &#10;&#9;C1.000096,721.000122 1.000096,361.000244 1.000048,1.000289 &#10;&#9;C640.999756,1.000193 1280.999512,1.000193 1920.999512,1.000096 &#10;&#9;C1920.999634,360.999664 1920.999634,720.999329 1920.999756,1080.999512 &#10;&#9;C1640.166626,1081.000000 1359.333374,1081.000000 1078.000000,1081.000000 &#10;M1304.565796,354.263458 &#10;&#9;C1304.581787,354.629944 1304.597656,354.996429 1304.613647,355.362915 &#10;&#9;C1304.735718,354.903290 1304.857666,354.443665 1305.293701,353.919342 &#10;&#9;C1305.198486,353.951202 1305.103394,353.983063 1304.565796,354.263458 &#10;M778.189514,578.794189 &#10;&#9;C773.962402,582.019409 769.746155,585.259094 765.506470,588.467712 &#10;&#9;C694.407959,642.276062 640.174255,709.712402 602.487488,790.465698 &#10;&#9;C592.189392,812.531921 583.333862,835.174805 576.451050,858.694885 &#10;&#9;C581.497742,851.897278 586.433899,845.264282 591.353638,838.619202 &#10;&#9;C610.368774,812.935669 628.846863,786.832703 648.519043,761.662781 &#10;&#9;C675.944092,726.573303 706.525757,694.301208 739.515625,664.351746 &#10;&#9;C740.396484,663.552002 741.793152,663.320374 743.070923,663.603149 &#10;&#9;C737.102722,678.587524 731.221069,693.607056 725.149963,708.549561 &#10;&#9;C707.988586,750.788330 690.736938,792.990356 673.555969,835.221130 &#10;&#9;C671.257019,840.871826 669.160156,846.604675 666.784912,852.779968 &#10;&#9;C668.963318,852.930847 670.574219,853.139709 672.185059,853.139954 &#10;&#9;C719.840942,853.146484 767.496948,853.101746 815.152649,853.185120 &#10;&#9;C818.594482,853.191162 820.466492,852.390747 821.725891,848.848450 &#10;&#9;C829.360718,827.373718 837.328430,806.017517 845.029297,784.565796 &#10;&#9;C846.131042,781.496948 847.444946,780.059998 850.992981,780.064941 &#10;&#9;C923.143311,780.165771 995.293823,780.148987 1067.444336,780.084534 &#10;&#9;C1070.486084,780.081848 1072.031250,780.821289 1073.190063,784.005981 &#10;&#9;C1080.981567,805.419983 1089.210083,826.675171 1096.970459,848.100159 &#10;&#9;C1098.438232,852.152161 1100.442871,853.224365 1104.530029,853.212402 &#10;&#9;C1151.519165,853.074524 1198.508789,853.122437 1245.498291,853.120911 &#10;&#9;C1247.263062,853.120850 1249.027710,853.120911 1251.598633,853.120911 &#10;&#9;C1250.791504,850.729614 1250.358032,849.186096 1249.759155,847.709717 &#10;&#9;C1238.313965,819.494202 1226.845947,791.287842 1215.389160,763.076965 &#10;&#9;C1187.273682,693.846008 1159.162231,624.613403 1131.047974,555.381958 &#10;&#9;C1118.276001,523.930969 1105.501099,492.481232 1092.974487,460.299652 &#10;&#9;C1094.186157,459.556091 1095.308960,458.451752 1096.624023,458.127533 &#10;&#9;C1105.159180,456.023041 1113.762939,454.196777 1122.294434,452.078644 &#10;&#9;C1154.943237,443.972809 1186.815918,433.740082 1217.216064,419.035095 &#10;&#9;C1244.966064,405.611938 1270.656250,389.330902 1292.931274,367.911682 &#10;&#9;C1296.511841,364.468719 1299.810791,360.732727 1303.239990,357.132233 &#10;&#9;C1302.911011,356.732849 1302.582153,356.333466 1302.253174,355.934082 &#10;&#9;C1300.712036,356.740112 1299.181396,357.567200 1297.627930,358.348907 &#10;&#9;C1283.216187,365.600922 1269.219360,373.901337 1254.279663,379.822113 &#10;&#9;C1235.951660,387.085754 1217.046875,393.154114 1197.991333,398.239807 &#10;&#9;C1182.660156,402.331512 1166.779541,404.485931 1151.056885,406.952545 &#10;&#9;C1138.118164,408.982391 1125.083008,410.543121 1112.036133,411.696472 &#10;&#9;C1099.140991,412.836426 1086.177490,413.205048 1073.101929,413.169312 &#10;&#9;C1071.956055,410.385315 1070.810181,407.601288 1070.333496,404.262451 &#10;&#9;C1078.121826,403.529938 1085.906860,402.758301 1093.699219,402.071503 &#10;&#9;C1136.043213,398.339539 1177.998291,392.317444 1218.790649,379.933319 &#10;&#9;C1255.599976,368.758423 1289.753418,352.357788 1319.567627,327.612518 &#10;&#9;C1350.568604,301.882263 1373.584595,270.782104 1384.328857,231.464340 &#10;&#9;C1386.217896,224.551437 1387.285400,217.413986 1388.732300,210.380249 &#10;&#9;C1388.248169,210.237961 1387.764038,210.095688 1387.279907,209.953400 &#10;&#9;C1386.174805,211.531036 1385.046631,213.093079 1383.967773,214.688538 &#10;&#9;C1363.741943,244.601746 1339.793091,270.930664 1310.100220,291.790161 &#10;&#9;C1273.025391,317.835510 1231.180908,332.190491 1187.283691,340.816132 &#10;&#9;C1157.117065,346.743774 1126.625610,351.036804 1096.247192,355.858032 &#10;&#9;C1081.636719,358.176788 1066.951782,360.027557 1052.066406,361.353455 &#10;&#9;C1051.811279,360.563019 1051.606079,359.752350 1051.294189,358.984985 &#10;&#9;C1024.176758,292.269745 997.100586,225.537704 969.878174,158.865356 &#10;&#9;C965.318176,147.697205 968.615662,150.356339 956.521057,149.919479 &#10;&#9;C953.220398,149.800247 951.446045,150.764313 950.161743,153.961044 &#10;&#9;C939.993713,179.270172 929.616577,204.495163 919.361511,229.769485 &#10;&#9;C888.596191,305.593201 857.857117,381.427612 826.621521,457.512115 &#10;&#9;C826.556091,458.023468 826.490662,458.534790 826.181641,459.559204 &#10;&#9;C826.127625,459.740631 826.073547,459.922089 825.534607,460.415802 &#10;&#9;C825.430298,460.956573 825.325989,461.497345 825.127991,462.150970 &#10;&#9;C825.127991,462.150970 825.109253,462.296417 824.555237,462.631561 &#10;&#9;C823.100220,464.143738 821.895630,466.087036 820.151001,467.100769 &#10;&#9;C804.368713,476.271149 788.371521,485.075989 772.672791,494.385040 &#10;&#9;C752.457703,506.372101 734.178040,521.049866 716.982788,536.950684 &#10;&#9;C703.809265,549.132629 691.209290,561.984131 678.975952,575.116943 &#10;&#9;C670.290466,584.441101 662.105896,594.343628 654.643311,604.671204 &#10;&#9;C640.254761,624.583618 627.123474,645.295105 615.876831,667.237976 &#10;&#9;C601.587280,695.117920 589.939697,723.951599 582.156128,754.277161 &#10;&#9;C578.867493,767.090210 576.102234,780.070862 573.841614,793.104065 &#10;&#9;C572.000916,803.715820 571.137085,814.506897 570.089172,825.242798 &#10;&#9;C569.427368,832.022522 569.223694,838.846985 568.821472,845.535767 &#10;&#9;C575.114807,829.770874 581.263489,814.105103 587.610779,798.520264 &#10;&#9;C603.095947,760.499146 622.462463,724.574219 646.004333,690.917725 &#10;&#9;C661.951111,668.119507 679.768066,646.813904 698.996582,626.784912 &#10;&#9;C718.124023,606.861206 739.023010,588.791565 761.290710,572.409912 &#10;&#9;C769.701721,566.222229 778.627136,560.733948 787.064270,555.656921 &#10;&#9;C784.210999,563.157593 781.357727,570.658264 778.189514,578.794189 &#10;M575.462952,862.319641 &#10;&#9;C575.516296,862.258728 575.569641,862.197876 575.462952,862.319641 &#10;z" stroke="none" opacity="1.000000" fill="#FFFFFF"/>
<path d="M1092.727539,461.030914 &#10;&#9;C1105.501099,492.481232 1118.276001,523.930969 1131.047974,555.381958 &#10;&#9;C1159.162231,624.613403 1187.273682,693.846008 1215.389160,763.076965 &#10;&#9;C1226.845947,791.287842 1238.313965,819.494202 1249.759155,847.709717 &#10;&#9;C1250.358032,849.186096 1250.791504,850.729614 1251.598633,853.120911 &#10;&#9;C1249.027710,853.120911 1247.263062,853.120850 1245.498291,853.120911 &#10;&#9;C1198.508789,853.122437 1151.519165,853.074524 1104.530029,853.212402 &#10;&#9;C1100.442871,853.224365 1098.438232,852.152161 1096.970459,848.100159 &#10;&#9;C1089.210083,826.675171 1080.981567,805.419983 1073.190063,784.005981 &#10;&#9;C1072.031250,780.821289 1070.486084,780.081848 1067.444336,780.084534 &#10;&#9;C995.293823,780.148987 923.143311,780.165771 850.992981,780.064941 &#10;&#9;C847.444946,780.059998 846.131042,781.496948 845.029297,784.565796 &#10;&#9;C837.328430,806.017517 829.360718,827.373718 821.725891,848.848450 &#10;&#9;C820.466492,852.390747 818.594482,853.191162 815.152649,853.185120 &#10;&#9;C767.496948,853.101746 719.840942,853.146484 672.185059,853.139954 &#10;&#9;C670.574219,853.139709 668.963318,852.930847 666.784912,852.779968 &#10;&#9;C669.160156,846.604675 671.257019,840.871826 673.555969,835.221130 &#10;&#9;C690.736938,792.990356 707.988586,750.788330 725.149963,708.549561 &#10;&#9;C731.221069,693.607056 737.102722,678.587524 743.028076,663.262024 &#10;&#9;C742.985291,662.920898 742.904968,662.987305 743.231567,662.874695 &#10;&#9;C743.876099,662.152039 744.194031,661.541931 744.577820,660.618774 &#10;&#9;C745.644714,659.197815 746.524109,657.941895 747.665039,657.004089 &#10;&#9;C766.513794,641.510620 785.148682,625.743225 804.324585,610.664490 &#10;&#9;C837.046753,584.933655 872.191528,562.834229 908.706055,542.914124 &#10;&#9;C919.325928,537.120544 930.225647,531.839783 941.015991,526.761597 &#10;&#9;C940.999817,527.529846 941.029785,527.883789 940.920593,528.187683 &#10;&#9;C928.834778,561.830383 916.734924,595.468201 904.645569,629.109680 &#10;&#9;C901.861145,636.858093 899.111023,644.618835 896.256592,652.622070 &#10;&#9;C938.129272,652.622070 979.312744,652.622070 1020.885254,652.622070 &#10;&#9;C1020.394409,650.907227 1020.097168,649.632935 1019.668091,648.404602 &#10;&#9;C1010.072937,620.934082 1000.418823,593.484070 990.872131,565.996765 &#10;&#9;C984.545471,547.780945 978.368591,529.513000 972.465332,511.042358 &#10;&#9;C991.260803,502.705414 1009.715576,494.594543 1028.170288,486.483704 &#10;&#9;C1016.723816,487.148712 1005.387695,488.359863 994.120300,490.034271 &#10;&#9;C984.773621,491.423157 975.507996,493.357758 966.074219,494.689301 &#10;&#9;C964.708923,490.944153 963.475952,487.560272 962.663208,484.058289 &#10;&#9;C972.470459,481.949921 981.825684,479.791565 991.250610,477.999908 &#10;&#9;C1023.615479,471.847595 1056.000366,465.799835 1088.400391,459.836487 &#10;&#9;C1089.724609,459.592743 1091.279907,460.604187 1092.727539,461.030914 &#10;z" stroke="none" opacity="1.000000" fill="#36C6CB"/>
<path d="M1092.851074,460.665283 &#10;&#9;C1091.279907,460.604187 1089.724609,459.592743 1088.400391,459.836487 &#10;&#9;C1056.000366,465.799835 1023.615479,471.847595 991.250610,477.999908 &#10;&#9;C981.825684,479.791565 972.470459,481.949921 962.334473,484.075623 &#10;&#9;C959.740601,484.481171 957.895569,484.751373 955.666870,485.098480 &#10;&#9;C954.651489,485.382965 954.025879,485.612000 953.386963,485.794922 &#10;&#9;C929.461182,492.644989 905.193787,498.503418 881.698425,506.601624 &#10;&#9;C855.671936,515.572205 830.847229,527.662659 807.086487,541.694031 &#10;&#9;C800.269409,545.719666 793.895264,550.495178 787.318054,554.926880 &#10;&#9;C778.627136,560.733948 769.701721,566.222229 761.290710,572.409912 &#10;&#9;C739.023010,588.791565 718.124023,606.861206 698.996582,626.784912 &#10;&#9;C679.768066,646.813904 661.951111,668.119507 646.004333,690.917725 &#10;&#9;C622.462463,724.574219 603.095947,760.499146 587.610779,798.520264 &#10;&#9;C581.263489,814.105103 575.114807,829.770874 568.821472,845.535767 &#10;&#9;C569.223694,838.846985 569.427368,832.022522 570.089172,825.242798 &#10;&#9;C571.137085,814.506897 572.000916,803.715820 573.841614,793.104065 &#10;&#9;C576.102234,780.070862 578.867493,767.090210 582.156128,754.277161 &#10;&#9;C589.939697,723.951599 601.587280,695.117920 615.876831,667.237976 &#10;&#9;C627.123474,645.295105 640.254761,624.583618 654.643311,604.671204 &#10;&#9;C662.105896,594.343628 670.290466,584.441101 678.975952,575.116943 &#10;&#9;C691.209290,561.984131 703.809265,549.132629 716.982788,536.950684 &#10;&#9;C734.178040,521.049866 752.457703,506.372101 772.672791,494.385040 &#10;&#9;C788.371521,485.075989 804.368713,476.271149 820.151001,467.100769 &#10;&#9;C821.895630,466.087036 823.100220,464.143738 824.843323,462.806030 &#10;&#9;C826.154968,463.419495 827.433105,464.492096 828.162598,464.199036 &#10;&#9;C835.044800,461.434448 841.931396,458.643616 848.630798,455.468109 &#10;&#9;C869.093750,445.768738 890.692566,439.237183 912.609497,434.268250 &#10;&#9;C934.025513,429.412903 955.841553,426.185181 977.591187,422.984711 &#10;&#9;C993.118958,420.699768 1008.808044,419.411987 1024.460815,418.107208 &#10;&#9;C1037.174316,417.047394 1049.947876,416.724274 1062.679688,415.852966 &#10;&#9;C1066.228760,415.610046 1069.723999,414.580566 1073.244019,413.911987 &#10;&#9;C1086.177490,413.205048 1099.140991,412.836426 1112.036133,411.696472 &#10;&#9;C1125.083008,410.543121 1138.118164,408.982391 1151.056885,406.952545 &#10;&#9;C1166.779541,404.485931 1182.660156,402.331512 1197.991333,398.239807 &#10;&#9;C1217.046875,393.154114 1235.951660,387.085754 1254.279663,379.822113 &#10;&#9;C1269.219360,373.901337 1283.216187,365.600922 1297.627930,358.348907 &#10;&#9;C1299.181396,357.567200 1300.712036,356.740112 1302.253174,355.934082 &#10;&#9;C1302.582153,356.333466 1302.911011,356.732849 1303.239990,357.132233 &#10;&#9;C1299.810791,360.732727 1296.511841,364.468719 1292.931274,367.911682 &#10;&#9;C1270.656250,389.330902 1244.966064,405.611938 1217.216064,419.035095 &#10;&#9;C1186.815918,433.740082 1154.943237,443.972809 1122.294434,452.078644 &#10;&#9;C1113.762939,454.196777 1105.159180,456.023041 1096.624023,458.127533 &#10;&#9;C1095.308960,458.451752 1094.186157,459.556091 1092.851074,460.665283 &#10;z" stroke="none" opacity="1.000000" fill="#7ED4FD"/>
<path d="M1073.172974,413.540649 &#10;&#9;C1069.723999,414.580566 1066.228760,415.610046 1062.679688,415.852966 &#10;&#9;C1049.947876,416.724274 1037.174316,417.047394 1024.460815,418.107208 &#10;&#9;C1008.808044,419.411987 993.118958,420.699768 977.591187,422.984711 &#10;&#9;C955.841553,426.185181 934.025513,429.412903 912.609497,434.268250 &#10;&#9;C890.692566,439.237183 869.093750,445.768738 848.630798,455.468109 &#10;&#9;C841.931396,458.643616 835.044800,461.434448 828.162598,464.199036 &#10;&#9;C827.433105,464.492096 826.154968,463.419495 825.120361,462.638428 &#10;&#9;C825.109253,462.296417 825.127991,462.150970 825.391846,461.921417 &#10;&#9;C825.776978,461.162415 825.898193,460.632965 826.019409,460.103546 &#10;&#9;C826.073547,459.922089 826.127625,459.740631 826.488220,459.134460 &#10;&#9;C826.899109,458.225739 827.003418,457.741760 827.107788,457.257812 &#10;&#9;C857.857117,381.427612 888.596191,305.593201 919.361511,229.769485 &#10;&#9;C929.616577,204.495163 939.993713,179.270172 950.161743,153.961044 &#10;&#9;C951.446045,150.764313 953.220398,149.800247 956.521057,149.919479 &#10;&#9;C968.615662,150.356339 965.318176,147.697205 969.878174,158.865356 &#10;&#9;C997.100586,225.537704 1024.176758,292.269745 1051.294189,358.984985 &#10;&#9;C1051.606079,359.752350 1051.811279,360.563019 1051.796875,361.897888 &#10;&#9;C1045.464600,363.396606 1039.320801,363.997528 1033.353638,365.368256 &#10;&#9;C1011.038208,370.494476 988.525696,374.994110 966.562256,381.366425 &#10;&#9;C935.145630,390.481415 905.391479,403.736694 878.467468,422.635406 &#10;&#9;C871.341309,427.637482 864.837708,433.526489 857.992920,439.072876 &#10;&#9;C857.937622,439.137482 857.880310,439.197662 857.880310,439.197662 &#10;&#9;C857.880310,439.197662 857.993225,438.953522 858.369446,438.924927 &#10;&#9;C860.748901,438.153656 862.712830,437.272247 864.761841,436.690918 &#10;&#9;C877.211609,433.158539 889.526978,428.936798 902.176270,426.369354 &#10;&#9;C926.588318,421.414368 951.125244,416.970886 975.740967,413.158752 &#10;&#9;C992.157654,410.616364 1008.781433,409.318390 1025.347412,407.860413 &#10;&#9;C1040.094727,406.562500 1054.890137,405.810303 1069.664307,404.817261 &#10;&#9;C1070.810181,407.601288 1071.956055,410.385315 1073.172974,413.540649 &#10;z" stroke="none" opacity="1.000000" fill="#37C5CA"/>
<path d="M1069.998901,404.539856 &#10;&#9;C1054.890137,405.810303 1040.094727,406.562500 1025.347412,407.860413 &#10;&#9;C1008.781433,409.318390 992.157654,410.616364 975.740967,413.158752 &#10;&#9;C951.125244,416.970886 926.588318,421.414368 902.176270,426.369354 &#10;&#9;C889.526978,428.936798 877.211609,433.158539 864.761841,436.690918 &#10;&#9;C862.712830,437.272247 860.748901,438.153656 858.377808,438.944031 &#10;&#9;C858.009888,438.991699 858.048157,439.008209 858.048157,439.008240 &#10;&#9;C864.837708,433.526489 871.341309,427.637482 878.467468,422.635406 &#10;&#9;C905.391479,403.736694 935.145630,390.481415 966.562256,381.366425 &#10;&#9;C988.525696,374.994110 1011.038208,370.494476 1033.353638,365.368256 &#10;&#9;C1039.320801,363.997528 1045.464600,363.396606 1051.914062,362.266296 &#10;&#9;C1066.951782,360.027557 1081.636719,358.176788 1096.247192,355.858032 &#10;&#9;C1126.625610,351.036804 1157.117065,346.743774 1187.283691,340.816132 &#10;&#9;C1231.180908,332.190491 1273.025391,317.835510 1310.100220,291.790161 &#10;&#9;C1339.793091,270.930664 1363.741943,244.601746 1383.967773,214.688538 &#10;&#9;C1385.046631,213.093079 1386.174805,211.531036 1387.279907,209.953400 &#10;&#9;C1387.764038,210.095688 1388.248169,210.237961 1388.732300,210.380249 &#10;&#9;C1387.285400,217.413986 1386.217896,224.551437 1384.328857,231.464340 &#10;&#9;C1373.584595,270.782104 1350.568604,301.882263 1319.567627,327.612518 &#10;&#9;C1289.753418,352.357788 1255.599976,368.758423 1218.790649,379.933319 &#10;&#9;C1177.998291,392.317444 1136.043213,398.339539 1093.699219,402.071503 &#10;&#9;C1085.906860,402.758301 1078.121826,403.529938 1069.998901,404.539856 &#10;z" stroke="none" opacity="1.000000" fill="#D53636"/>
<path d="M966.206482,495.050598 &#10;&#9;C975.507996,493.357758 984.773621,491.423157 994.120300,490.034271 &#10;&#9;C1005.387695,488.359863 1016.723816,487.148712 1028.170288,486.483704 &#10;&#9;C1009.715576,494.594543 991.260803,502.705414 972.180908,510.935059 &#10;&#9;C961.369507,516.143921 951.183289,521.233948 940.997070,526.323914 &#10;&#9;C930.225647,531.839783 919.325928,537.120544 908.706055,542.914124 &#10;&#9;C872.191528,562.834229 837.046753,584.933655 804.324585,610.664490 &#10;&#9;C785.148682,625.743225 766.513794,641.510620 747.665039,657.004089 &#10;&#9;C746.524109,657.941895 745.644714,659.197815 744.109985,660.580872 &#10;&#9;C743.352600,661.566467 743.128784,662.276855 742.904968,662.987305 &#10;&#9;C742.904968,662.987305 742.985291,662.920898 742.967285,662.872314 &#10;&#9;C741.793152,663.320374 740.396484,663.552002 739.515625,664.351746 &#10;&#9;C706.525757,694.301208 675.944092,726.573303 648.519043,761.662781 &#10;&#9;C628.846863,786.832703 610.368774,812.935669 591.353638,838.619202 &#10;&#9;C586.433899,845.264282 581.497742,851.897278 576.451050,858.694885 &#10;&#9;C583.333862,835.174805 592.189392,812.531921 602.487488,790.465698 &#10;&#9;C640.174255,709.712402 694.407959,642.276062 765.506470,588.467712 &#10;&#9;C769.746155,585.259094 773.962402,582.019409 778.676025,578.426880 &#10;&#9;C780.490356,577.392578 781.928101,576.881775 783.130249,576.035950 &#10;&#9;C821.028809,549.370789 861.818298,528.268066 905.560059,513.025269 &#10;&#9;C920.764893,507.726807 936.336731,503.481384 952.148560,498.823364 &#10;&#9;C957.106262,497.611328 961.656372,496.330994 966.206482,495.050598 &#10;z" stroke="none" opacity="1.000000" fill="#D53636"/>
<path d="M951.740967,498.755005 &#10;&#9;C936.336731,503.481384 920.764893,507.726807 905.560059,513.025269 &#10;&#9;C861.818298,528.268066 821.028809,549.370789 783.130249,576.035950 &#10;&#9;C781.928101,576.881775 780.490356,577.392578 778.833496,578.109253 &#10;&#9;C781.357727,570.658264 784.210999,563.157593 787.191162,555.291870 &#10;&#9;C793.895264,550.495178 800.269409,545.719666 807.086487,541.694031 &#10;&#9;C830.847229,527.662659 855.671936,515.572205 881.698425,506.601624 &#10;&#9;C905.193787,498.503418 929.461182,492.644989 953.386963,485.794922 &#10;&#9;C954.025879,485.612000 954.651489,485.382965 955.624146,485.472168 &#10;&#9;C954.556946,490.097595 953.148987,494.426300 951.740967,498.755005 &#10;z" stroke="none" opacity="1.000000" fill="#37C5CA"/>
<path d="M826.864624,457.384949 &#10;&#9;C827.003418,457.741760 826.899109,458.225739 826.609985,458.877930 &#10;&#9;C826.490662,458.534790 826.556091,458.023468 826.864624,457.384949 &#10;z" stroke="none" opacity="1.000000" fill="#7ED4FD"/>
<path d="M1304.979614,353.984039 &#10;&#9;C1304.857666,354.443665 1304.735718,354.903290 1304.613525,355.362915 &#10;&#9;C1304.597656,354.996429 1304.581787,354.629944 1304.781128,354.130707 &#10;&#9;C1304.996460,353.997955 1304.979614,353.984039 1304.979614,353.984039 &#10;z" stroke="none" opacity="1.000000" fill="#7ED4FD"/>
<path d="M825.776978,460.259674 &#10;&#9;C825.898193,460.632965 825.776978,461.162415 825.438660,461.864990 &#10;&#9;C825.325989,461.497345 825.430298,460.956573 825.776978,460.259674 &#10;z" stroke="none" opacity="1.000000" fill="#7ED4FD"/>
<path d="M575.542969,862.228333 &#10;&#9;C575.569641,862.197876 575.516296,862.258728 575.542969,862.228333 &#10;z" stroke="none" opacity="1.000000" fill="#D53636"/>
<path d="M1305.002319,354.006470 &#10;&#9;C1305.103394,353.983063 1305.198486,353.951202 1305.136719,353.951691 &#10;&#9;C1304.979614,353.984039 1304.996460,353.997955 1305.002319,354.006470 &#10;z" stroke="none" opacity="1.000000" fill="#7ED4FD"/>
<path d="M941.015991,526.761597 &#10;&#9;C951.183289,521.233948 961.369507,516.143921 971.840149,511.161163 &#10;&#9;C978.368591,529.513000 984.545471,547.780945 990.872131,565.996765 &#10;&#9;C1000.418823,593.484070 1010.072937,620.934082 1019.668091,648.404602 &#10;&#9;C1020.097168,649.632935 1020.394409,650.907227 1020.885254,652.622070 &#10;&#9;C979.312744,652.622070 938.129272,652.622070 896.256592,652.622070 &#10;&#9;C899.111023,644.618835 901.861145,636.858093 904.645569,629.109680 &#10;&#9;C916.734924,595.468201 928.834778,561.830383 940.920593,528.187683 &#10;&#9;C941.029785,527.883789 940.999817,527.529846 941.015991,526.761597 &#10;z" stroke="none" opacity="1.000000" fill="#FCFEFE"/>
<path d="M952.148560,498.823364 &#10;&#9;C953.148987,494.426300 954.556946,490.097595 956.007690,485.395203 &#10;&#9;C957.895569,484.751373 959.740601,484.481171 961.914368,484.193695 &#10;&#9;C963.475952,487.560272 964.708923,490.944153 966.074219,494.689331 &#10;&#9;C961.656372,496.330994 957.106262,497.611328 952.148560,498.823364 &#10;z" stroke="none" opacity="1.000000" fill="#FCFEFE"/>
<path d="M743.231567,662.874695 &#10;&#9;C743.128784,662.276855 743.352600,661.566467 744.044189,660.893921 &#10;&#9;C744.194031,661.541931 743.876099,662.152039 743.231567,662.874695 &#10;z" stroke="none" opacity="1.000000" fill="#FFFFFF"/>
<path d="M858.001587,438.972595 &#10;&#9;C857.993225,438.953522 857.880310,439.197662 857.880310,439.197662 &#10;&#9;C857.880310,439.197662 857.937622,439.137482 857.992920,439.072845 &#10;&#9;C858.048157,439.008209 858.009888,438.991699 858.001587,438.972595 &#10;z" stroke="none" opacity="1.000000" fill="#D53636"/>
</svg>