<?xml version="1.0" encoding="UTF-8"?>
<svg width="24px" height="24px" viewBox="0 0 24 24" version="1.1" xmlns="http://www.w3.org/2000/svg">
    <g stroke="none" stroke-width="1" fill="none" fill-rule="evenodd">
        <path d="M12,2 C17.5228,2 22,6.47715 22,12 C22,17.5228 17.5228,22 12,22 C10.3596,22 8.77747,21.6039 7.35449,20.8536 L3.70711,21.7071 C3.0718,21.8946 2.40573,21.3284 2.59325,20.6931 L3.44695,17.0456 C2.69665,15.6226 2.3,13.8373 2.3,12 C2.3,6.47715 6.77715,2 12,2 Z M12,4 C7.88172,4 4.3,7.58172 4.3,12 C4.3,13.5453 4.65784,14.9954 5.32428,16.2545 C5.45213,16.5092 5.47277,16.8051 5.38199,17.0755 L4.79189,19.6068 L7.32311,19.0167 C7.59346,18.9259 7.88935,18.9465 8.14405,19.0744 C9.40312,19.7408 10.6782,20.1 12,20.1 C16.1183,20.1 19.7,16.5183 19.7,12.4 C19.7,7.88172 16.1183,4 12,4 Z M8,13 C8.55228,13 9,13.4477 9,14 C9,14.5523 8.55228,15 8,15 C7.44772,15 7,14.5523 7,14 C7,13.4477 7.44772,13 8,13 Z M12,13 C12.5523,13 13,13.4477 13,14 C13,14.5523 12.5523,15 12,15 C11.4477,15 11,14.5523 11,14 C11,13.4477 11.4477,13 12,13 Z M16,13 C16.5523,13 17,13.4477 17,14 C17,14.5523 16.5523,15 16,15 C15.4477,15 15,14.5523 15,14 C15,13.4477 15.4477,13 16,13 Z" fill="#FFFFFF"></path>
    </g>
</svg>
