<?xml version="1.0" encoding="UTF-8"?>
<svg version="1.1" xmlns="http://www.w3.org/2000/svg" width="1536" height="1024">
<path d="M0 0 C506.88 0 1013.76 0 1536 0 C1536 337.92 1536 675.84 1536 1024 C1029.12 1024 522.24 1024 0 1024 C0 686.08 0 348.16 0 0 Z " fill="#FEFEFE" transform="translate(0,0)"/>
<path d="M0 0 C21 0 21 0 27.875 6 C30.64453125 9.62109375 30.64453125 9.62109375 31.87744141 11.39794922 C33.2970687 13.42395929 34.89785132 15.23487872 36.5625 17.0625 C37.09230469 17.67480469 37.62210937 18.28710938 38.16796875 18.91796875 C40.53249977 21.60516498 42.95216715 24.24051549 45.375 26.875 C51.44666828 33.47779662 57.49348656 40.10150348 63.375 46.875 C66.82851561 50.84252724 70.3900394 54.7084764 73.95263672 58.57763672 C76.50525763 61.35458682 79.02968205 64.14963313 81.5 67 C84.40085562 70.34500576 87.37824395 73.6160534 90.375 76.875 C96.42669544 83.45616709 102.45767564 90.05476297 108.3125 96.8125 C111.94012996 100.97880355 115.69571248 105.02272097 119.44970703 109.07470703 C124.01568744 114.00608006 128.51755383 118.99258265 133 124 C134.624158 125.81325454 136.24914933 127.62576303 137.875 129.4375 C138.59429687 130.24058594 139.31359375 131.04367187 140.0546875 131.87109375 C141.66238057 133.63051689 143.29656488 135.33406188 145 137 C145.37769531 136.56171875 145.75539063 136.1234375 146.14453125 135.671875 C150.33267787 130.84618849 154.6245279 126.12242441 158.95263672 121.42260742 C161.48560452 118.66721365 163.98948597 115.89357734 166.4375 113.0625 C170.0166732 108.93400526 173.73321756 104.93721959 177.44580078 100.92919922 C183.1364324 94.78203306 188.77062644 88.58678165 194.25 82.25 C198.13709317 77.78165926 202.19344657 73.47297893 206.23242188 69.14257812 C209.66407315 65.45702433 213.03716055 61.73418036 216.328125 57.921875 C218.35758073 55.58894926 220.427647 53.29488755 222.5 51 C225.15113994 48.06321535 227.78290171 45.11397458 230.375 42.125 C233.82919304 38.15669451 237.39130558 34.28987441 240.95483398 30.42016602 C243.487107 27.66561908 245.99020203 24.89274925 248.4375 22.0625 C252.10038045 17.83062841 255.91550609 13.74189862 259.73803711 9.65454102 C260.23053955 9.12530029 260.72304199 8.59605957 261.23046875 8.05078125 C261.66770264 7.58325439 262.10493652 7.11572754 262.55541992 6.6340332 C264.45019284 4.49076547 266.21291779 2.23385276 268 0 C274.93 0 281.86 0 289 0 C289 105.6 289 211.2 289 320 C267.88 320 246.76 320 225 320 C224.67 262.58 224.34 205.16 224 146 C215.70436465 154.25151278 215.70436465 154.25151278 207.984375 162.79296875 C202.68192802 168.69037533 196.89090243 174.15474503 191.25195312 179.72753906 C185.55960507 185.35905775 179.9200248 190.94910264 174.7265625 197.05078125 C170.21680518 202.1421136 165.22589275 206.80732953 160.3828125 211.578125 C155.84347833 216.07606706 151.52420054 220.57476012 147.5703125 225.6015625 C146 227 146 227 142 227 C140.2800293 225.64233398 140.2800293 225.64233398 138.57421875 223.74609375 C137.62579102 222.7106543 137.62579102 222.7106543 136.65820312 221.65429688 C135.68270508 220.55698242 135.68270508 220.55698242 134.6875 219.4375 C133.40090163 218.01847678 132.11314717 216.60050088 130.82421875 215.18359375 C130.19136963 214.48371338 129.55852051 213.78383301 128.90649414 213.06274414 C126.50697718 210.46657065 124.00806723 207.98319235 121.49389648 205.4987793 C119.7998278 203.79917353 118.22799104 202.02695426 116.6875 200.1875 C113.92381971 196.97666245 111.01380404 193.97732835 108 191 C105.06881809 188.10408042 102.23596826 185.19757429 99.5625 182.0625 C96.25856387 178.19619176 92.67304398 174.6436537 89.0559082 171.07543945 C85.74081831 167.78779898 82.64219747 164.3814295 79.61328125 160.83203125 C77.48070956 158.4102973 75.19794072 156.16759894 72.87109375 153.93359375 C70.11119286 151.08150411 67.58286858 148.01334667 65 145 C64.67 202.75 64.34 260.5 64 320 C42.88 320 21.76 320 0 320 C0 214.4 0 108.8 0 0 Z " fill="#2B80FE" transform="translate(285,292)"/>
<path d="M0 0 C162.72740741 0 162.72740741 0 188.66796875 25.63671875 C208.96088491 47.15764799 216.95884747 74.38646005 216.10498047 103.4921875 C215.61330008 115.23763157 212.93958064 125.99423368 209 137 C208.42765625 138.61068359 208.42765625 138.61068359 207.84375 140.25390625 C203.25615474 152.14135747 195.88376779 161.9630638 187 171 C186.31421875 171.69867188 185.6284375 172.39734375 184.921875 173.1171875 C172.4158968 185.02102601 155.73704942 191.78300868 139 195 C137.63897659 195.26187355 137.63897659 195.26187355 136.25045776 195.52903748 C132.78033221 196.03182792 129.49089002 196.11994669 125.98486328 196.11352539 C125.30019926 196.11364593 124.61553524 196.11376646 123.91012383 196.11389065 C121.71348596 196.11314958 119.51693501 196.10555843 117.3203125 196.09765625 C115.95629924 196.09618433 114.59228542 196.09516516 113.22827148 196.09460449 C108.19383899 196.08938059 103.15941863 196.07541932 98.125 196.0625 C86.86375 196.041875 75.6025 196.02125 64 196 C64 235.6 64 275.2 64 316 C42.88 316 21.76 316 0 316 C0 211.72 0 107.44 0 0 Z " fill="#2B80FE" transform="translate(1008,296)"/>
<path d="M0 0 C1.39456452 0.00667256 2.78911118 0.01863093 4.18359375 0.03515625 C5.2499707 0.04192383 5.2499707 0.04192383 6.33789062 0.04882812 C8.09899388 0.06064761 9.86005411 0.07858362 11.62109375 0.09765625 C16.63159669 12.09328939 21.62976605 24.09403263 26.62109375 36.09765625 C26.99782227 37.00340393 27.37455078 37.90915161 27.76269531 38.84234619 C38.89404128 65.61021515 49.83506382 92.44692457 60.5478363 119.38510132 C62.8220508 125.10118789 65.1121416 130.81064445 67.4140625 136.515625 C67.98842032 137.94138301 68.56272246 139.36716345 69.13696289 140.79296875 C69.9309221 142.76426783 70.72581807 144.73515196 71.52438354 146.70458984 C72.22891204 148.44246327 72.92905038 150.18211461 73.62890625 151.921875 C74.0170752 152.88182373 74.40524414 153.84177246 74.80517578 154.83081055 C75.62109375 157.09765625 75.62109375 157.09765625 75.62109375 159.09765625 C74.45352539 159.11747559 73.28595703 159.13729492 72.08300781 159.15771484 C67.64695772 159.23523034 63.21117552 159.32368765 58.77539062 159.41503906 C56.87505476 159.45273907 54.97466165 159.48768025 53.07421875 159.51953125 C42.9562506 159.69102224 32.90208831 160.02722447 22.828125 161.02734375 C22.0404071 161.10552338 21.25268921 161.183703 20.44110107 161.26425171 C2.70215934 163.17458112 -15.07696578 167.83078596 -31.37890625 175.09765625 C-30.65002197 175.06736328 -29.9211377 175.03707031 -29.17016602 175.00585938 C-25.76071515 174.86622683 -22.3510719 174.73193792 -18.94140625 174.59765625 C-17.2234082 174.52611328 -17.2234082 174.52611328 -15.47070312 174.453125 C-0.25287859 173.86296006 14.83390482 174.07750273 30.03125 174.97265625 C31.62118715 175.06275441 33.21114848 175.15242673 34.8011322 175.24169922 C38.92262262 175.47422309 43.04376576 175.71240549 47.16485596 175.9519043 C51.395511 176.19671987 55.62647937 176.43599421 59.85742188 176.67578125 C68.11228963 177.14441867 76.36679774 177.61905434 84.62109375 178.09765625 C84.62109375 178.75765625 84.62109375 179.41765625 84.62109375 180.09765625 C107.10172398 179.70961562 127.85253232 177.94017206 149.62109375 172.09765625 C135.84393989 186.87352572 111.11445974 194.50591335 91.62109375 196.09765625 C99.99469441 217.33916301 108.76116193 238.41517492 117.53674316 259.49285889 C118.60013183 262.04730209 119.66296141 264.60197712 120.72558594 267.15673828 C122.39215844 271.16342011 124.05947912 275.16978969 125.72741699 279.17590332 C126.36111486 280.69805645 126.99466162 282.2202725 127.62805176 283.74255371 C130.5051872 290.65653848 133.38541033 297.56838203 136.33203125 304.453125 C136.71738037 305.35562988 137.10272949 306.25813477 137.49975586 307.18798828 C138.17532586 308.76530482 138.85537138 310.34071713 139.54125977 311.91357422 C140.78786698 314.82291615 141.62109375 316.89499441 141.62109375 320.09765625 C117.53109375 320.09765625 93.44109375 320.09765625 68.62109375 320.09765625 C62.88786611 307.48455545 62.88786611 307.48455545 60.484375 301.109375 C60.0687883 300.02135086 60.0687883 300.02135086 59.64480591 298.91134644 C59.04879314 297.35038808 58.45424227 295.78887085 57.86105347 294.22683716 C56.23417138 289.94381887 54.59546813 285.66532747 52.95703125 281.38671875 C52.43836739 280.03148857 52.43836739 280.03148857 51.90922546 278.64888 C46.94490565 265.6975728 41.86170058 252.79242519 36.78833008 239.88354492 C32.64101563 229.32129521 28.56335253 218.73824947 24.62109375 208.09765625 C-6.34417575 207.4524086 -33.61927508 212.25725491 -62.37890625 224.09765625 C-63.00990234 224.34950684 -63.64089844 224.60135742 -64.29101562 224.86083984 C-78.52658014 230.56149093 -92.02293754 238.00707635 -104.37890625 247.09765625 C-104.70890625 246.43765625 -105.03890625 245.77765625 -105.37890625 245.09765625 C-105.04890625 244.10765625 -104.71890625 243.11765625 -104.37890625 242.09765625 C-110.9680339 246.69501337 -117.14577672 251.49809399 -123.046875 256.953125 C-125.11440145 258.85441817 -127.22842749 260.66694362 -129.37890625 262.47265625 C-148.36130085 279.19074931 -161.32120934 301.1896093 -173.37890625 323.09765625 C-177.11716291 311.88288628 -166.18674621 290.72374118 -161.20703125 280.53515625 C-150.05927273 258.61494386 -134.55484783 237.68211713 -115.37890625 222.09765625 C-114.18300375 221.09054393 -112.98775981 220.08264938 -111.79296875 219.07421875 C-110.42656915 217.93525202 -109.05937054 216.79724322 -107.69140625 215.66015625 C-107.06838623 215.13413818 -106.44536621 214.60812012 -105.8034668 214.06616211 C-102.71253944 211.52864755 -99.8577563 209.33543368 -96.25683594 207.54736328 C-85.05202913 201.83793857 -82.28354855 194.16839596 -78.00390625 182.84765625 C-77.28077085 181.03080962 -76.55339279 179.21564655 -75.82202148 177.40209961 C-74.33978251 173.71344779 -72.8785079 170.01758144 -71.43408203 166.31396484 C-69.65080502 161.75904993 -67.79218953 157.24217086 -65.875 152.7421875 C-55.71087273 128.84884075 -46.18054455 104.69492688 -36.55889893 80.5796814 C-36.00020376 79.17942289 -35.44150828 77.77916451 -34.8828125 76.37890625 C-34.60687004 75.68726002 -34.33092758 74.99561378 -34.04662323 74.28300858 C-28.58806475 60.60294877 -23.08926959 46.93939556 -17.56640625 33.28515625 C-17.17803589 32.32419037 -16.78966553 31.36322449 -16.38952637 30.37313843 C-14.06054992 24.61141678 -11.72556596 18.8521997 -9.37890625 13.09765625 C-9.10999573 12.43767639 -8.84108521 11.77769653 -8.56402588 11.09771729 C-7.85576184 9.36332117 -7.14292171 7.63079566 -6.4296875 5.8984375 C-6.05110596 4.97844971 -5.67252441 4.05846191 -5.2824707 3.1105957 C-3.81731145 -0.15345131 -3.87954046 0.11212545 0 0 Z " fill="#2B80FE" transform="translate(785.37890625,290.90234375)"/>
<path d="M0 0 C1.10666016 0.00757324 2.21332031 0.01514648 3.35351562 0.02294922 C17.29443927 0.30398314 28.60128466 3.8239146 38.5 14.0625 C45.35378696 22.33486147 47.91888361 32.36834148 47.86352539 42.88989258 C47.86367142 43.6221405 47.86381744 44.35438843 47.8639679 45.10882568 C47.86327413 47.51659155 47.85550692 49.92427898 47.84765625 52.33203125 C47.84579017 54.00640318 47.84436716 55.68077565 47.84336853 57.35514832 C47.83955835 61.75277221 47.8297409 66.15036284 47.81866455 70.54797363 C47.80841816 75.03913931 47.803864 79.53031037 47.79882812 84.02148438 C47.78811725 92.82683984 47.77053263 101.63216195 47.75 110.4375 C41.81 110.4375 35.87 110.4375 29.75 110.4375 C29.255 101.5275 29.255 101.5275 28.75 92.4375 C27.904375 93.79875 27.05875 95.16 26.1875 96.5625 C20.3658583 105.20675585 13.5786519 109.38453185 3.515625 112.0234375 C-10.32324596 114.09535886 -22.65654772 112.82331284 -34.5625 105.25 C-41.11628732 100.39457092 -45.14772701 94.30681915 -47.25 86.4375 C-47.56638104 83.64034011 -47.63122188 80.87603317 -47.625 78.0625 C-47.62338867 77.30807617 -47.62177734 76.55365234 -47.62011719 75.77636719 C-47.49221875 69.9908439 -46.59915272 66.27516504 -43.25 61.4375 C-42.71375 60.57125 -42.1775 59.705 -41.625 58.8125 C-32.47701415 49.66451415 -19.41317664 46.4682497 -6.78344727 46.32397461 C-5.12775848 46.32413087 -3.4720637 46.32965646 -1.81640625 46.33984375 C-0.93846909 46.3412587 -0.06053192 46.34267365 0.8440094 46.34413147 C3.62520882 46.34969179 6.40632526 46.36223679 9.1875 46.375 C11.08268112 46.38002013 12.97786352 46.38458214 14.87304688 46.38867188 C19.49872948 46.3996482 24.12435071 46.41688518 28.75 46.4375 C28.48353796 43.87840908 28.20292409 41.32220331 27.9140625 38.765625 C27.8406665 38.04648926 27.76727051 37.32735352 27.69165039 36.58642578 C26.98043059 30.45522065 25.30724524 25.8044427 20.75 21.4375 C12.42421964 15.63715204 2.53799538 15.69165066 -7.25 16.4375 C-12.55324182 17.86302322 -17.41054225 20.48511702 -21.25 24.4375 C-23.33349118 28.53007197 -24.34340597 31.90452986 -25.25 36.4375 C-31.52 36.4375 -37.79 36.4375 -44.25 36.4375 C-42.5779435 25.29045668 -39.68985262 17.21698248 -31.25 9.4375 C-21.40205707 2.21458821 -12.08509281 -0.11514834 0 0 Z " fill="#EB1124" transform="translate(318.25,715.5625)"/>
<path d="M0 0 C1.58844727 -0.01063477 1.58844727 -0.01063477 3.20898438 -0.02148438 C17.39372549 0.09213339 28.65505125 5.06855007 39.00390625 14.70703125 C51.01875384 28.18757453 52.4375 42.84198225 52.4375 60.4375 C23.7275 60.4375 -4.9825 60.4375 -34.5625 60.4375 C-30.85951576 78.81015631 -30.85951576 78.81015631 -18.5625 91.4375 C-9.48774346 97.11132737 2.05082101 96.56003466 12.31640625 95 C17.99490221 93.41989678 22.70068217 89.95848945 26.4375 85.4375 C27.7575 82.7975 29.0775 80.1575 30.4375 77.4375 C36.7075 77.4375 42.9775 77.4375 49.4375 77.4375 C47.02314792 84.86627564 44.58342033 90.56539141 39.4375 96.4375 C38.95925781 97.03175781 38.48101563 97.62601563 37.98828125 98.23828125 C30.78709948 106.41896885 18.77103826 111.7513067 7.99731445 112.63842773 C5.34902756 112.74079512 2.71264776 112.75960198 0.0625 112.75 C-0.81921875 112.76611328 -1.7009375 112.78222656 -2.609375 112.79882812 C-15.84207706 112.80852952 -27.92842103 107.64257439 -37.53125 98.59765625 C-50.43352484 84.8765832 -53.28536987 68.37404724 -52.9375 50.26171875 C-52.27555174 35.72486221 -46.23424588 21.98895274 -35.49609375 11.9921875 C-24.8429563 3.42663456 -13.56663933 -0.25691253 0 0 Z " fill="#EB1225" transform="translate(1164.5625,715.5625)"/>
<path d="M0 0 C14.7571875 -0.12375 14.7571875 -0.12375 29.8125 -0.25 C32.89698486 -0.28641602 35.98146973 -0.32283203 39.15942383 -0.36035156 C41.63361924 -0.37204578 44.10782242 -0.38223586 46.58203125 -0.390625 C47.84285522 -0.41108887 49.1036792 -0.43155273 50.40270996 -0.45263672 C61.3432231 -0.45691161 70.30753127 1.45770365 78.3515625 9.22265625 C86.60768642 18.12440124 87.65101563 28.30798302 87.28125 39.9375 C86.75392319 49.48211522 83.28988113 57.80087664 76.40625 64.56640625 C67.74021884 71.41338842 57.23690555 71.4209615 46.6796875 71.29296875 C45.49060791 71.28994751 44.30152832 71.28692627 43.07641602 71.28381348 C38.67585448 71.26823254 34.27541763 71.22634946 29.875 71.1875 C15.086875 71.0946875 15.086875 71.0946875 0 71 C0 47.57 0 24.14 0 0 Z " fill="#FEFEFE" transform="translate(1072,359)"/>
<path d="M0 0 C1 2 1 2 0.51333618 3.79792786 C0.08061905 4.8933918 0.08061905 4.8933918 -0.36083984 6.01098633 C-0.68703308 6.84818207 -1.01322632 7.68537781 -1.3493042 8.54794312 C-1.89956268 9.92606674 -1.89956268 9.92606674 -2.4609375 11.33203125 C-3.02714813 12.77783066 -3.02714813 12.77783066 -3.60479736 14.25283813 C-4.42524754 16.34586279 -5.2491276 18.4375454 -6.07598877 20.52804565 C-8.26890302 26.07266804 -10.43778343 31.62668734 -12.609375 37.1796875 C-13.27877609 38.88852364 -13.27877609 38.88852364 -13.96170044 40.63188171 C-19.00075962 53.51574324 -23.87684647 66.46020984 -28.74188232 79.41055298 C-29.45006647 81.29565962 -30.15854728 83.18065485 -30.86737061 85.06552124 C-31.50608341 86.76457652 -32.14372085 88.4640366 -32.78009033 90.16397095 C-34.88894955 95.7778991 -34.88894955 95.7778991 -36 98 C-60.09 98 -84.18 98 -109 98 C-108.19936996 93.99684979 -107.31072931 91.04387672 -105.7421875 87.3515625 C-105.28529541 86.27068359 -104.82840332 85.18980469 -104.35766602 84.07617188 C-102.36018763 79.42668159 -100.35693379 74.77977328 -98.34228516 70.13769531 C-97.23112014 67.54026119 -96.16815314 64.93434336 -95.13671875 62.3046875 C-91.36724405 52.98213301 -86.19511846 47.74256476 -78 42 C-77.02289062 41.278125 -76.04578125 40.55625 -75.0390625 39.8125 C-51.99673511 23.22676306 -26.44521056 10.16132925 0 0 Z " fill="#2A7FFE" transform="translate(761,513)"/>
<path d="M0 0 C9.89740522 6.4701484 15.38897662 14.34249691 19.6875 25.25 C19.6875 26.57 19.6875 27.89 19.6875 29.25 C13.7475 29.25 7.8075 29.25 1.6875 29.25 C0.8625 27.55875 0.0375 25.8675 -0.8125 24.125 C-4.97819306 16.51723193 -10.08607849 12.76756579 -18.13134766 9.86962891 C-26.62111212 7.45782879 -36.96152208 8.03438034 -44.9375 11.6875 C-54.74245087 17.48627288 -59.75177029 25.33004597 -62.84082031 36.09033203 C-65.22803189 47.02059789 -64.78530261 61.42964392 -59.3125 71.25 C-58.88839844 72.054375 -58.46429688 72.85875 -58.02734375 73.6875 C-53.50419815 81.34786914 -46.89625442 85.99381604 -38.3125 88.25 C-26.67151011 89.42197783 -15.84711778 89.1931502 -6.5 81.625 C-2.22545605 77.60453733 -0.28435027 73.7368877 1.6875 68.25 C7.6275 68.25 13.5675 68.25 19.6875 68.25 C18.25037653 79.74698777 13.72175242 87.93273694 4.6875 95.25 C-9.22836327 105.14172833 -25.12582856 107.00822286 -41.76953125 104.7890625 C-55.15906622 101.80581093 -66.57940139 94.28309152 -74.125 82.8125 C-80.57202974 71.99283203 -83.71070442 62.07278056 -83.625 49.4375 C-83.61936035 48.5609375 -83.6137207 47.684375 -83.60791016 46.78125 C-83.32562961 31.64430508 -78.28664999 18.51982068 -67.73046875 7.50390625 C-49.33339356 -9.64490212 -21.89368843 -12.06790657 0 0 Z " fill="#EB1225" transform="translate(543.3125,722.75)"/>
<path d="M0 0 C6.27 0 12.54 0 19 0 C25.635399 17.54379415 32.04847689 35.15878955 38.35131836 52.82446289 C42.6891193 64.97413219 47.06467996 77.07808374 52 89 C52.29430908 88.15147461 52.58861816 87.30294922 52.8918457 86.42871094 C62.94468652 57.50313817 73.44079739 28.74403035 84 0 C90.27 0 96.54 0 103 0 C100.25820492 10.01889028 96.3955413 19.58526573 92.625 29.25 C91.88646915 31.15123865 91.14827714 33.05260896 90.41040039 34.95410156 C88.81413907 39.06534762 87.21538857 43.17561396 85.61474609 47.28515625 C83.05415323 53.85933863 80.49830888 60.43536241 77.94316864 67.01166534 C72.63376679 80.67638529 67.31835897 94.33876398 62 108 C55.07 108 48.14 108 41 108 C33.81968996 90.18518979 26.83015887 72.3028693 19.9375 54.375 C18.53355215 50.72653645 17.1291176 47.07826141 15.72402954 43.43023682 C14.80968642 41.05597255 13.8960778 38.68142527 12.98324585 36.30657959 C10.78595843 30.59772814 8.57010613 24.89740199 6.31298828 19.21191406 C5.8916713 18.14800446 5.47035431 17.08409485 5.03627014 15.98794556 C4.24308657 13.98923607 3.44565614 11.99220493 2.64329529 9.99716187 C2.29380325 9.1158963 1.94431122 8.23463074 1.58422852 7.32666016 C1.27679214 6.55939606 0.96935577 5.79213196 0.65260315 5.00161743 C0 3 0 3 0 0 Z " fill="#EB1125" transform="translate(927,718)"/>
<path d="M0 0 C5.28 0 10.56 0 16 0 C16 8.58 16 17.16 16 26 C26.89 26 37.78 26 49 26 C49 31.28 49 36.56 49 42 C38.11 42 27.22 42 16 42 C16.09096434 53.17987819 16.09096434 53.17987819 16.20898438 64.359375 C16.26316485 68.92379605 16.31427985 73.48809809 16.34643555 78.05273438 C16.37258145 81.73581886 16.41306173 85.41850019 16.46318626 89.10133362 C16.47977917 90.50137795 16.49134039 91.90149189 16.49761391 93.30162048 C16.53456085 100.79431174 16.57233768 107.23660302 20 114 C24.00601705 117.18426996 28.09184141 118.05032492 33.109375 118.31640625 C33.86347656 118.35830078 34.61757813 118.40019531 35.39453125 118.44335938 C36.17183594 118.48267578 36.94914063 118.52199219 37.75 118.5625 C38.54277344 118.60568359 39.33554687 118.64886719 40.15234375 118.69335938 C42.10137815 118.79902991 44.05066748 118.89997966 46 119 C46 123.95 46 128.9 46 134 C16.90408715 134.93941961 16.90408715 134.93941961 6.4375 126.875 C0.59938343 121.16005044 -1.80991495 112.91102497 -2.12025452 104.89311218 C-2.11803391 103.73173233 -2.11581329 102.57035248 -2.11352539 101.3737793 C-2.11367142 100.72931351 -2.11381744 100.08484772 -2.1139679 99.42085266 C-2.11327506 97.30527296 -2.10551231 95.18978294 -2.09765625 93.07421875 C-2.09578983 91.60162911 -2.09436699 90.12903885 -2.09336853 88.65644836 C-2.08956096 84.79147612 -2.07974579 80.9265418 -2.06866455 77.06158447 C-2.0584125 73.11332716 -2.05386279 69.16506368 -2.04882812 65.21679688 C-2.03812187 57.47784534 -2.02053941 49.73893283 -2 42 C-7.94 42 -13.88 42 -20 42 C-20 36.72 -20 31.44 -20 26 C-13.73 26 -7.46 26 -1 26 C-1.0309375 22.349375 -1.0309375 22.349375 -1.0625 18.625 C-1.08873217 12.34591496 -0.77989281 6.23914251 0 0 Z " fill="#EB1125" transform="translate(670,692)"/>
<path d="M0 0 C0.33 0.66 0.66 1.32 1 2 C-0.05927467 4.58330234 -1.17639388 7.01655184 -2.4375 9.5 C-2.80367432 10.22324463 -3.16984863 10.94648926 -3.54711914 11.69165039 C-6.70737979 17.7530452 -10.37109463 22.95511269 -15 28 C-15.66386719 28.75539063 -16.32773437 29.51078125 -17.01171875 30.2890625 C-30.50823826 44.8084236 -48.95176133 52.05762111 -68 56 C-68.66483398 56.15098145 -69.32966797 56.30196289 -70.01464844 56.45751953 C-99.14569187 62.92101337 -131.32295435 59.09825599 -160.75634766 57.06787109 C-177.44485442 55.92460026 -193.84741189 55.85744596 -210.5625 56.5 C-212.52219727 56.57154297 -212.52219727 56.57154297 -214.52148438 56.64453125 C-217.68110248 56.76026818 -220.84058876 56.8787694 -224 57 C-220.42713893 54.18324584 -216.83403636 52.60705245 -212.5625 51.125 C-211.82749268 50.8681543 -211.09248535 50.61130859 -210.33520508 50.34667969 C-188.11355 42.83526476 -165.53180281 39.74582218 -142.13671875 40.0078125 C-140.73306359 40.01734687 -139.32940178 40.02594071 -137.92573547 40.03366089 C-132.04858131 40.06666792 -126.17158731 40.10785433 -120.29467773 40.17138672 C-81.70862778 40.57419489 -38.90119675 38.08415689 -9.64453125 9.6328125 C-8.77183594 8.76398438 -7.89914062 7.89515625 -7 7 C-6.24074219 6.25492187 -5.48148438 5.50984375 -4.69921875 4.7421875 C-3.11773141 3.17654673 -1.55580508 1.59116429 0 0 Z " fill="#EB1125" transform="translate(976,410)"/>
<path d="M0 0 C-0.33 0.66 -0.66 1.32 -1 2 C-3.14099807 2.50909603 -5.30628483 2.91663192 -7.4765625 3.28125 C-16.38027598 4.91115047 -24.81447789 7.59911761 -33.375 10.5 C-34.15658478 10.76255585 -34.93816956 11.02511169 -35.74343872 11.29562378 C-76.41862676 25.00909695 -113.31737527 45.37481046 -145.57080078 73.74560547 C-146.74678346 74.77775426 -147.93262635 75.79865793 -149.12109375 76.81640625 C-160.98600612 86.99726654 -172.11997961 97.97661206 -183.03417969 109.15893555 C-187.44260056 113.63145801 -191.74793513 117.54803801 -197 121 C-195.30333114 116.13171719 -192.68844321 111.92977693 -190 107.5625 C-189.51233154 106.7684375 -189.02466309 105.974375 -188.5222168 105.15625 C-179.36782739 90.4074293 -168.89667891 76.65093521 -157 64 C-156.45375977 63.41444336 -155.90751953 62.82888672 -155.34472656 62.22558594 C-141.41336228 47.40514595 -125.90105861 35.34329211 -107.83496094 25.95410156 C-106.0913314 25.04748844 -104.36160674 24.11427928 -102.6328125 23.1796875 C-70.25433946 6.19051224 -36.23261528 -0.75500748 0 0 Z " fill="#ED1225" transform="translate(810,498)"/>
<path d="M0 0 C5.94 0 11.88 0 18 0 C18 35.64 18 71.28 18 108 C12.06 108 6.12 108 0 108 C0 72.36 0 36.72 0 0 Z " fill="#EB0F22" transform="translate(816,718)"/>
<path d="M0 0 C1.7324102 0.01507854 3.46483314 0.02876132 5.19726562 0.04101562 C9.40266346 0.07376014 13.60743793 0.12536564 17.8125 0.1875 C16.87467014 11.90534662 14.07458606 23.48277495 5.08203125 31.78515625 C-3.47849327 38.26696621 -13.86972085 38.38658044 -24.1875 37.1875 C-30.20385657 35.44174665 -34.88223896 32.64836607 -38.1875 27.1875 C-39.98723286 21.78830143 -39.88862627 16.25192735 -38.0625 10.875 C-33.83699716 4.81844593 -29.70575146 2.60507246 -22.71826172 0.78735352 C-15.21491816 -0.48741589 -7.58627875 -0.11550496 0 0 Z " fill="#FEFAFB" transform="translate(329.1875,774.8125)"/>
<path d="M0 0 C0.83104248 -0.01095703 1.66208496 -0.02191406 2.51831055 -0.03320312 C11.57930463 0.17524017 18.51670759 3.64986412 25.08984375 9.765625 C31.02923187 16.17639313 32.8125 23.01232235 32.8125 31.625 C10.7025 31.625 -11.4075 31.625 -34.1875 31.625 C-32.99541759 20.89625835 -30.23187535 13.77228779 -22.1875 6.625 C-15.22896436 1.34145921 -8.52178843 0.08179658 0 0 Z " fill="#FEFAFB" transform="translate(1165.1875,730.375)"/>
<path d="M0 0 C6.6 0 13.2 0 20 0 C20 0.33 20 0.66 20 1 C13.73 1 7.46 1 1 1 C1 105.61 1 210.22 1 318 C21.13 318 41.26 318 62 318 C62 260.58 62 203.16 62 144 C62.66 144.33 63.32 144.66 64 145 C64 202.75 64 260.5 64 320 C42.88 320 21.76 320 0 320 C0 214.4 0 108.8 0 0 Z " fill="#116DFE" transform="translate(285,292)"/>
<path d="M0 0 C4.18531174 1.72871572 6.23950002 3.83039478 8 8 C8.5868052 11.96294473 8.3663316 15.08417101 6.875 18.8125 C3.59732112 22.6364587 0.39454782 23.85320549 -4.5625 24.375 C-9.72316123 23.81201877 -11.93038702 22.18220382 -15.375 18.375 C-17.51251032 13.9355555 -17.51433783 10.67207638 -16 6 C-11.16733105 0.05209975 -7.34255353 -0.69989678 0 0 Z " fill="#EB1224" transform="translate(829,670)"/>
<path d="M0 0 C0.33 0 0.66 0 1 0 C1 56.1 1 112.2 1 170 C20.8 170 40.6 170 61 170 C61 131.06 61 92.12 61 52 C61.33 52 61.66 52 62 52 C62.33 91.6 62.66 131.2 63 172 C41.88 172 20.76 172 -1 172 C-0.67 115.24 -0.34 58.48 0 0 Z " fill="#1673FD" transform="translate(1009,440)"/>
<path d="M0 0 C1 2 1 2 0.3984375 4.37109375 C-1.3666091 7.68918414 -3.27919017 8.93363334 -6.375 11.0625 C-27.93341896 26.78114562 -43.59197609 48.22406363 -57.87768555 70.39038086 C-59 72 -59 72 -61 74 C-61.66 73.67 -62.32 73.34 -63 73 C-62.45763117 68.05207385 -60.18894152 64.59661898 -57.5625 60.5 C-57.11438965 59.79439941 -56.6662793 59.08879883 -56.20458984 58.36181641 C-44.1365125 39.6328695 -29.38309452 22.89222718 -12 9 C-11.05640625 8.23558594 -10.1128125 7.47117187 -9.140625 6.68359375 C-2.27494131 1.13747066 -2.27494131 1.13747066 0 0 Z " fill="#F8F3F6" transform="translate(681,532)"/>
<path d="M0 0 C1.31967773 -0.00580078 1.31967773 -0.00580078 2.66601562 -0.01171875 C3.51486328 -0.01042969 4.36371094 -0.00914062 5.23828125 -0.0078125 C5.99794189 -0.00668457 6.75760254 -0.00555664 7.5402832 -0.00439453 C9.70368657 0.12597543 11.60760801 0.53108217 13.6875 1.125 C14.1825 3.105 14.1825 3.105 14.6875 5.125 C13.53302368 5.154729 13.53302368 5.154729 12.35522461 5.18505859 C-8.06512773 5.66000395 -8.06512773 5.66000395 -28.3125 8.125 C-27.50390625 5.703125 -27.50390625 5.703125 -26.3125 3.125 C-18.10202674 -0.22621357 -8.7426321 -0.03929273 0 0 Z " fill="#F5F1F6" transform="translate(795.3125,492.875)"/>
<path d="M0 0 C0.66 0.33 1.32 0.66 2 1 C-2.13774771 5.1874389 -6.28221417 9.36807139 -10.43286133 13.54272461 C-11.84192393 14.96180233 -13.24918098 16.38267534 -14.65454102 17.80541992 C-16.68285817 19.85818329 -18.71772792 21.90425631 -20.75390625 23.94921875 C-21.37399063 24.5796257 -21.99407501 25.21003265 -22.63294983 25.85954285 C-26.50136763 29.72893444 -30.46476349 32.93496355 -35 36 C-33.27285164 30.98926145 -30.51422464 26.67473329 -27.75 22.1875 C-27.28464844 21.41857422 -26.81929687 20.64964844 -26.33984375 19.85742188 C-23.16685811 14.67837507 -19.72944677 9.79301151 -16 5 C-15.67 5.66 -15.34 6.32 -15 7 C-15.9375 9.125 -15.9375 9.125 -17 11 C-15.68 11.66 -14.36 12.32 -13 13 C-8.71 8.71 -4.42 4.42 0 0 Z " fill="#EA0D1A" transform="translate(648,583)"/>
<path d="M0 0 C5.61 0 11.22 0 17 0 C17.66 1.65 18.32 3.3 19 5 C8.605 5.495 8.605 5.495 -2 6 C-1.34 4.02 -0.68 2.04 0 0 Z " fill="#F9EAEA" transform="translate(781,465)"/>
<path d="M0 0 C-0.66 0.99 -1.32 1.98 -2 3 C-2 2.34 -2 1.68 -2 1 C-5.12197478 2.3089572 -5.12197478 2.3089572 -7 5 C-17.23 5 -27.46 5 -38 5 C-38 4.34 -38 3.68 -38 3 C-37.20827393 2.94465088 -36.41654785 2.88930176 -35.60083008 2.83227539 C-32.00447841 2.57898892 -28.40849519 2.32079614 -24.8125 2.0625 C-23.56662109 1.97548828 -22.32074219 1.88847656 -21.03710938 1.79882812 C-19.83505859 1.71181641 -18.63300781 1.62480469 -17.39453125 1.53515625 C-16.28956299 1.456604 -15.18459473 1.37805176 -14.04614258 1.29711914 C-0.60378348 -0.01404148 -0.60378348 -0.01404148 0 0 Z " fill="#F9F3F5" transform="translate(908,466)"/>
<path d="M0 0 C2 1 2 1 2.8515625 3.28515625 C3.10679687 4.20167969 3.36203125 5.11820312 3.625 6.0625 C3.88539063 6.98160156 4.14578125 7.90070313 4.4140625 8.84765625 C4.60742188 9.55792969 4.80078125 10.26820313 5 11 C0.545 11.495 0.545 11.495 -4 12 C-2.66666667 8 -1.33333333 4 0 0 Z " fill="#F3F1F6" transform="translate(789,443)"/>
<path d="M0 0 C6.93 0 13.86 0 21 0 C20.67 0.66 20.34 1.32 20 2 C17.54869706 2.67122529 15.17728441 3.21469716 12.6875 3.6875 C12.01009766 3.82994141 11.33269531 3.97238281 10.63476562 4.11914062 C7.15916088 4.80203071 4.36221357 5.28784016 1 4 C1.66 4 2.32 4 3 4 C3 3.34 3 2.68 3 2 C2.01 1.34 1.02 0.68 0 0 Z " fill="#EB0E13" transform="translate(789,498)"/>
<path d="M0 0 C6.27 0 12.54 0 19 0 C18.34 1.65 17.68 3.3 17 5 C16.67 4.01 16.34 3.02 16 2 C13.54126232 2.14058476 11.08314825 2.28722999 8.625 2.4375 C7.92632813 2.47681641 7.22765625 2.51613281 6.5078125 2.55664062 C2.62639508 2.74280134 2.62639508 2.74280134 -1 4 C-0.67 2.68 -0.34 1.36 0 0 Z " fill="#EA0612" transform="translate(1195,793)"/>
<path d="M0 0 C0.33 0 0.66 0 1 0 C1 1.98 1 3.96 1 6 C1.66 5.67 2.32 5.34 3 5 C1.58707905 9.8274799 -0.42974154 13.7162359 -3 18 C-4.25799297 14.2260211 -3.56030048 12.27738041 -2.625 8.4375 C-2.34914063 7.28121094 -2.07328125 6.12492188 -1.7890625 4.93359375 C-1 2 -1 2 0 0 Z " fill="#2172FC" transform="translate(615,596)"/>
<path d="M0 0 C0.33 0.99 0.66 1.98 1 3 C-3.95 7.95 -8.9 12.9 -14 18 C-14.66 17.67 -15.32 17.34 -16 17 C-13.52110175 14.35391507 -11.04183636 11.70817443 -8.5625 9.0625 C-7.85544922 8.30775391 -7.14839844 7.55300781 -6.41992188 6.77539062 C-5.40961914 5.69741211 -5.40961914 5.69741211 -4.37890625 4.59765625 C-3.7557251 3.93258057 -3.13254395 3.26750488 -2.49047852 2.58227539 C-1.6705087 1.71180457 -0.8455974 0.8455974 0 0 Z " fill="#1972FE" transform="translate(459,397)"/>
<path d="M0 0 C0.33 1.32 0.66 2.64 1 4 C8.92 3.505 8.92 3.505 17 3 C17 3.99 17 4.98 17 6 C11.06 6 5.12 6 -1 6 C-0.67 4.02 -0.34 2.04 0 0 Z " fill="#EA0A15" transform="translate(275,746)"/>
<path d="M0 0 C-0.61875 0.28875 -1.2375 0.5775 -1.875 0.875 C-4.13325765 1.93720042 -4.13325765 1.93720042 -6 4 C-8.31648799 5.03842565 -10.64903024 6.0421975 -13 7 C-13 7.99 -13 8.98 -13 10 C-15.31 10 -17.62 10 -20 10 C-16.85647586 6.51663541 -13.55486955 4.41247217 -9.4375 2.1875 C-8.30183594 1.56230469 -7.16617188 0.93710937 -5.99609375 0.29296875 C-3 -1 -3 -1 0 0 Z " fill="#2191F9" transform="translate(723,533)"/>
<path d="M0 0 C0.66 1.32 1.32 2.64 2 4 C-2.95 4 -7.9 4 -13 4 C-11 1 -11 1 -8.1875 0.3125 C-5.42559682 0.04172518 -2.77147648 -0.08151401 0 0 Z " fill="#D3E6FD" transform="translate(798,466)"/>
<path d="M0 0 C-0.99 1.485 -0.99 1.485 -2 3 C-2 2.34 -2 1.68 -2 1 C-5.12197478 2.3089572 -5.12197478 2.3089572 -7 5 C-9.64 5 -12.28 5 -15 5 C-14.67 4.01 -14.34 3.02 -14 2 C-9.18912503 0.45073518 -5.08003559 -0.25400178 0 0 Z " fill="#F5E9EF" transform="translate(908,466)"/>
<path d="M0 0 C-1.57789598 1.15330947 -3.1625482 2.29737927 -4.75 3.4375 C-5.63171875 4.07558594 -6.5134375 4.71367187 -7.421875 5.37109375 C-9.72699125 6.8275081 -11.34349572 7.55931821 -14 8 C-13.01 7.01 -12.02 6.02 -11 5 C-11.66 4.34 -12.32 3.68 -13 3 C-11.21189234 2.30329584 -9.41937948 1.61788811 -7.625 0.9375 C-6.62726562 0.55464844 -5.62953125 0.17179687 -4.6015625 -0.22265625 C-2 -1 -2 -1 0 0 Z " fill="#2272FB" transform="translate(935,464)"/>
<path d="M0 0 C2.00720923 0.28674418 4.0085944 0.61866701 6 1 C2.34011184 4.65988816 -2.99738966 4.05470803 -7.9375 4.0625 C-9.29173445 4.04667422 -10.64595503 4.02763357 -12 4 C-12 3.67 -12 3.34 -12 3 C-10.82630859 2.80083984 -10.82630859 2.80083984 -9.62890625 2.59765625 C-8.61699219 2.42105469 -7.60507812 2.24445313 -6.5625 2.0625 C-5.55316406 1.88847656 -4.54382813 1.71445312 -3.50390625 1.53515625 C-1.0712562 1.25248903 -1.0712562 1.25248903 0 0 Z " fill="#E5152D" transform="translate(860,465)"/>
<path d="M0 0 C-0.33 0.66 -0.66 1.32 -1 2 C-1.99 1.67 -2.98 1.34 -4 1 C-4.33 1.66 -4.66 2.32 -5 3 C-7.28515625 3.6328125 -7.28515625 3.6328125 -10.0625 4.125 C-10.98160156 4.29257812 -11.90070312 4.46015625 -12.84765625 4.6328125 C-13.91306641 4.81457031 -13.91306641 4.81457031 -15 5 C-15 4.34 -15 3.68 -15 3 C-9.89665983 1.094753 -5.53657294 -0.42589023 0 0 Z " fill="#F20D1B" transform="translate(745,508)"/>
<path d="M0 0 C1.63001953 0.01353516 1.63001953 0.01353516 3.29296875 0.02734375 C4.12441406 0.03894531 4.95585938 0.05054688 5.8125 0.0625 C5.8125 0.3925 5.8125 0.7225 5.8125 1.0625 C5.02875 1.18625 4.245 1.31 3.4375 1.4375 C0.67192178 1.85367993 0.67192178 1.85367993 -1.1875 4.0625 C-1.1875 3.4025 -1.1875 2.7425 -1.1875 2.0625 C-2.1775 2.0625 -3.1675 2.0625 -4.1875 2.0625 C-4.5175 2.7225 -4.8475 3.3825 -5.1875 4.0625 C-6.5075 3.7325 -7.8275 3.4025 -9.1875 3.0625 C-9.1875 2.4025 -9.1875 1.7425 -9.1875 1.0625 C-5.90230525 -0.03256492 -3.45086585 -0.03710608 0 0 Z " fill="#1D8FFD" transform="translate(759.1875,466.9375)"/>
<path d="M0 0 C-2 2 -2 2 -5.5625 3 C-7.2640625 3.495 -7.2640625 3.495 -9 4 C-9.33 4.66 -9.66 5.32 -10 6 C-10.99 6 -11.98 6 -13 6 C-12.67 4.68 -12.34 3.36 -12 2 C-7.8803623 0.70756464 -4.33168317 -0.26252625 0 0 Z " fill="#F10C1B" transform="translate(782,457)"/>
<path d="M0 0 C0.33 0.66 0.66 1.32 1 2 C0.67 2.99 0.34 3.98 0 5 C-0.99 5.33 -1.98 5.66 -3 6 C-3 5.34 -3 4.68 -3 4 C-5.31 4.33 -7.62 4.66 -10 5 C-7.90217213 2.90217213 -6.6200793 2.3490604 -3.875 1.375 C-3.15054688 1.11460937 -2.42609375 0.85421875 -1.6796875 0.5859375 C-0.84824219 0.29589844 -0.84824219 0.29589844 0 0 Z " fill="#2984F2" transform="translate(761,513)"/>
<path d="M0 0 C0.33 0.66 0.66 1.32 1 2 C0.22265625 3.9453125 0.22265625 3.9453125 -0.9375 6.125 C-1.31777344 6.84945313 -1.69804688 7.57390625 -2.08984375 8.3203125 C-2.39019531 8.87460937 -2.69054687 9.42890625 -3 10 C-3.66 9.34 -4.32 8.68 -5 8 C-4.74739753 4.21096292 -2.72150557 2.45813407 0 0 Z " fill="#E80E15" transform="translate(976,410)"/>
<path d="M0 0 C0 3.77910478 -0.99703962 4.46106101 -3.5 7.1875 C-4.1496875 7.90292969 -4.799375 8.61835938 -5.46875 9.35546875 C-5.9740625 9.89816406 -6.479375 10.44085938 -7 11 C-7.66 10.67 -8.32 10.34 -9 10 C-7.8758824 8.70756532 -6.75067408 7.41607925 -5.625 6.125 C-4.99851562 5.40570313 -4.37203125 4.68640625 -3.7265625 3.9453125 C-2.52573166 2.5923402 -1.2791655 1.2791655 0 0 Z " fill="#1A72FE" transform="translate(477,377)"/>
<path d="M0 0 C0.66 0 1.32 0 2 0 C1.62669176 2.72574271 1.20805399 3.80822085 -0.84765625 5.703125 C-1.94400391 6.46882812 -1.94400391 6.46882812 -3.0625 7.25 C-3.79597656 7.77078125 -4.52945313 8.2915625 -5.28515625 8.828125 C-5.85105469 9.21484375 -6.41695312 9.6015625 -7 10 C-5.15014033 6.06048404 -2.92434659 3.21678125 0 0 Z " fill="#1C72FD" transform="translate(656,526)"/>
<path d="M0 0 C3.3 0 6.6 0 10 0 C10 0.99 10 1.98 10 3 C9.01 3.66 8.02 4.32 7 5 C6.01 4.67 5.02 4.34 4 4 C4.33 3.01 4.66 2.02 5 1 C3.35 1 1.7 1 0 1 C0 0.67 0 0.34 0 0 Z " fill="#2093FD" transform="translate(798,466)"/>
<path d="M0 0 C0.66 0.33 1.32 0.66 2 1 C0.875 2.5 0.875 2.5 -1 4 C-4.1875 4.1875 -4.1875 4.1875 -7 4 C-4.61426621 2.10786631 -2.92824652 0.97608217 0 0 Z " fill="#2A89F0" transform="translate(742,521)"/>
</svg>
