<?xml version="1.0" encoding="UTF-8"?>
<svg width="24px" height="24px" viewBox="0 0 24 24" version="1.1" xmlns="http://www.w3.org/2000/svg">
    <g stroke="none" stroke-width="1" fill="none" fill-rule="evenodd">
        <path d="M2.92893,2.92893 C3.55535,2.30251 4.51472,2.30251 5.14114,2.92893 L21.0711,18.8589 C21.6975,19.4853 21.6975,20.4447 21.0711,21.0711 C20.4447,21.6975 19.4853,21.6975 18.8589,21.0711 L2.92893,5.14114 C2.30251,4.51472 2.30251,3.55535 2.92893,2.92893 Z" fill="#FFFFFF" transform="translate(12.000000, 12.000000) rotate(-315.000000) translate(-12.000000, -12.000000)"></path>
        <path d="M5.5,10.5 L10.5,10.5 L10.5,18.5 C10.5,19.0523 10.0523,19.5 9.5,19.5 L5.5,19.5 C4.94772,19.5 4.5,19.0523 4.5,18.5 L4.5,11.5 C4.5,10.9477 4.94772,10.5 5.5,10.5 Z" fill="#FFFFFF" transform="translate(7.500000, 15.000000) rotate(-315.000000) translate(-7.500000, -15.000000)"></path>
    </g>
</svg>
