<?xml version="1.0" encoding="UTF-8"?>
<svg version="1.1" xmlns="http://www.w3.org/2000/svg" width="512" height="512">
<path d="M0 0 C1.02612598 3.07837794 1.12090219 5.16574296 1.11352539 8.3894043 C1.11341209 10.04077644 1.11341209 10.04077644 1.11329651 11.72550964 C1.10813522 12.91308365 1.10297394 14.10065765 1.09765625 15.32421875 C1.0962413 16.54075638 1.09482635 17.75729401 1.09336853 19.01069641 C1.08776312 22.9029891 1.07520967 26.79522464 1.0625 30.6875 C1.0574857 33.32356688 1.05292267 35.95963466 1.04882812 38.59570312 C1.03779193 45.06382164 1.0210485 51.53190674 1 58 C2.08848236 57.99777939 3.17696472 57.99555878 4.2984314 57.99327087 C96.98086178 57.81043043 96.98086178 57.81043043 138.11065674 58.26345825 C141.16235525 58.2970055 144.21400262 58.32448951 147.26580811 58.34616089 C168.93588869 58.5072351 190.51427529 59.31874338 211.625 64.6875 C213.15954834 65.06878052 213.15954834 65.06878052 214.72509766 65.45776367 C231.58020634 69.80088554 247.43386528 76.25648752 262.98730469 84.00537109 C264.75321763 84.87804569 266.53560484 85.71721779 268.3203125 86.55078125 C282.45544113 93.2414088 294.45595896 102.56936055 306 113 C306.54897949 113.49258301 307.09795898 113.98516602 307.66357422 114.49267578 C311.49537671 117.94004691 315.26548473 121.44760137 319 125 C319.55075195 125.52207031 320.10150391 126.04414062 320.66894531 126.58203125 C330.98112052 136.42139053 339.687987 146.85266619 347.16796875 159.02734375 C348.51514987 161.21328156 349.88749457 163.36170381 351.30078125 165.50390625 C371.12239615 195.82828102 384.00625941 232.31106162 384.23828125 268.6953125 C384.246353 269.91918671 384.25442474 271.14306091 384.26274109 272.40402222 C384.27653705 274.99443161 384.28727915 277.58485884 384.29516602 280.17529297 C384.30661225 282.7834214 384.32694496 285.39152779 384.35668945 287.99951172 C384.5442472 304.48154179 383.75581636 319.92684097 380 336 C379.60010864 337.80162598 379.60010864 337.80162598 379.19213867 339.63964844 C378.50789387 342.55486664 377.75360265 345.43167294 376.9375 348.3125 C376.64858887 349.334646 376.35967773 350.35679199 376.06201172 351.40991211 C369.40088529 373.87364393 358.39878152 394.85504765 345 414 C344.38769531 414.88816406 343.77539062 415.77632813 343.14453125 416.69140625 C330.64180518 434.40145328 315.30256882 450.91114657 298 464 C297.12214844 464.67160156 296.24429687 465.34320313 295.33984375 466.03515625 C271.93430758 483.51353506 244.89104323 496.46165911 216.8125 504.375 C216.019646 504.60171387 215.22679199 504.82842773 214.40991211 505.06201172 C198.80038623 509.19161456 183.00888505 510.44905929 166.93066406 510.34057617 C165.12478144 510.33972679 163.31889778 510.34021109 161.51301575 510.34190369 C156.68161519 510.34275293 151.85044505 510.32530398 147.01909733 510.30418181 C141.94363178 510.28523324 136.86815904 510.28365043 131.79266357 510.28010559 C122.21326037 510.2708379 112.63396176 510.24629675 103.05460429 510.21605712 C90.08758125 510.17602537 77.12052894 510.16001553 64.15345955 510.14255047 C43.76889493 510.1144709 23.38455085 510.05466655 3 510 C3 474.36 3 438.72 3 402 C21.28986328 401.81824219 21.28986328 401.81824219 39.94921875 401.6328125 C47.68295539 401.55180381 55.41668233 401.47032361 63.15039062 401.38671875 C75.42027972 401.25416318 87.69016756 401.12350931 99.96020508 401.00537109 C108.89762332 400.91931108 117.83494539 400.8266634 126.77221423 400.7262429 C131.50044661 400.67334218 136.22866179 400.62364695 140.95700645 400.58185196 C145.41643685 400.54232957 149.87568675 400.49393386 154.33495331 400.43901825 C155.96297956 400.4204813 157.59104508 400.40506008 159.21913338 400.39316177 C171.52670432 400.30052263 183.66601127 399.72208382 195.3125 395.375 C196.02124268 395.11557617 196.72998535 394.85615234 197.46020508 394.58886719 C227.27965518 383.34422244 250.49784281 363.2530749 264.1484375 334.234375 C276.74469171 306.16421764 279.08012214 275.24278116 268.640625 246.0625 C263.72197781 233.56989481 258.4418035 220.74637781 249 211 C248.5157959 210.47921875 248.0315918 209.9584375 247.53271484 209.421875 C239.62439523 200.92766536 231.22270642 193.65834944 221.63500977 187.11767578 C220.14405537 186.09847476 218.67791955 185.04320686 217.21484375 183.984375 C212.85443041 181.29289265 208.27884983 179.35804828 203.5625 177.375 C202.64662109 176.98054687 201.73074219 176.58609375 200.78710938 176.1796875 C193.0878438 172.90763781 186.02243129 170.73142715 177.64834595 170.38783264 C176.47196121 170.33158568 176.47196121 170.33158568 175.27181113 170.27420241 C167.05831994 169.90815215 158.84686001 169.82583694 150.62646484 169.79467773 C148.97850825 169.78506233 147.33055394 169.77505035 145.68260193 169.76467896 C141.27266627 169.73801953 136.86272034 169.71680318 132.45275068 169.69667697 C127.82033971 169.67457231 123.18795896 169.64730524 118.55557251 169.62062073 C109.8119863 169.57102048 101.06838302 169.5259627 92.32476389 169.48259836 C82.3583734 169.43294387 72.39201327 169.37813184 62.42565227 169.32291877 C41.95046322 169.20960128 21.47524509 169.10265602 1 169 C1.00222061 169.69268982 1.00444122 170.38537964 1.00672913 171.09906006 C1.0288337 178.30138636 1.04392829 185.50370304 1.05493164 192.70605469 C1.05939946 195.39486852 1.06636119 198.08365882 1.07543945 200.77246094 C1.08755371 204.6347725 1.09323945 208.49704792 1.09765625 212.359375 C1.10281754 213.5636615 1.10797882 214.767948 1.11329651 216.00872803 C1.11337204 217.12958801 1.11344757 218.250448 1.11352539 219.40527344 C1.115746 220.39122498 1.11796661 221.37717651 1.12025452 222.39300537 C1.01134079 224.7541434 0.67399991 226.74333236 0 229 C-3.85661716 227.38589685 -6.50580701 224.89769615 -9.55175781 222.06933594 C-10.07767139 221.58116268 -10.60358498 221.09298943 -11.14543533 220.59002304 C-16.11361302 215.95031184 -20.94311057 211.17446956 -25.72844696 206.34671783 C-27.22448892 204.83754944 -28.72395088 203.33184668 -30.22418213 201.82684326 C-33.40234809 198.63743447 -36.5764832 195.44403393 -39.75 192.25 C-43.44931817 188.52688119 -47.15037905 184.8055268 -50.85569 181.08837128 C-52.31774846 179.61993318 -53.77671442 178.14847286 -55.23553467 176.67681885 C-59.80120522 172.09442161 -64.4239142 167.68218477 -69.33410645 163.47174072 C-71.46565582 161.58861439 -73.32873862 159.54791477 -75.1796875 157.390625 C-80.36143799 151.51752985 -85.85662465 145.99243344 -91.40283203 140.46679688 C-93.13300972 138.74201526 -94.85772763 137.01190195 -96.58203125 135.28125 C-101.88695041 129.97351851 -107.21172114 124.78615302 -113 120 C-116.00654185 116.89950372 -116.00654185 116.89950372 -115.984375 113.8515625 C-114.47120778 109.46818126 -111.44631033 106.72121404 -108.25 103.4375 C-107.57042236 102.7264209 -106.89084473 102.0153418 -106.19067383 101.28271484 C-101.66091398 96.58757359 -96.98274875 92.09925593 -92.14111328 87.72924805 C-87.15885434 83.21279775 -82.38324095 78.5009735 -77.625 73.75 C-76.87565186 73.00508301 -76.12630371 72.26016602 -75.35424805 71.49267578 C-71.96664292 68.09638546 -68.68505204 64.67805024 -65.5859375 61.015625 C-63.0588293 58.07663834 -60.38948912 55.49800117 -57.47509766 52.94433594 C-52.23277299 48.26618384 -47.24468897 43.36233859 -42.29962158 38.37478638 C-40.77172571 36.83387846 -39.24050941 35.2963352 -37.70849609 33.75952148 C-34.46945777 30.50920023 -31.23445196 27.25488438 -28 24 C-24.22014589 20.19649311 -20.43862917 16.39466841 -16.65292358 12.59698486 C-15.14521643 11.08280325 -13.64055016 9.56564392 -12.13598633 8.04833984 C-11.22743896 7.13648926 -10.3188916 6.22463867 -9.3828125 5.28515625 C-8.58246582 4.47957275 -7.78211914 3.67398926 -6.95751953 2.84399414 C-4.38386037 0.41959309 -3.58061158 0 0 0 Z " fill="#FFFFFF" transform="translate(122,1)"/>
</svg>
